<svg xmlns="http://www.w3.org/2000/svg" xmlns:xlink="http://www.w3.org/1999/xlink" width="500" zoomAndPan="magnify" viewBox="0 0 375 374.999991" height="500" preserveAspectRatio="xMidYMid meet" version="1.0"><defs><g/></defs><path fill="#050404" d="M 171.371094 340.671875 C 168.035156 341.035156 165.558594 341.855469 164.242188 342.304688 C 157.511719 344.574219 154.148438 345.707031 151.402344 346.894531 C 145.597656 349.402344 128.546875 354.890625 111.675781 349.339844 C 108.480469 348.289062 102.035156 346.089844 96.039062 340.367188 C 88.621094 333.285156 85.875 324.597656 83.410156 316.8125 C 82.410156 313.65625 81.722656 310.15625 80.355469 303.152344 C 80.355469 303.152344 77.667969 294.949219 79.167969 291.746094 C 79.222656 291.628906 79.503906 291.0625 79.601562 290.257812 C 79.730469 289.199219 79.457031 288.34375 79.335938 288.007812 C 78.820312 286.601562 77.800781 285.847656 77.398438 285.5625 C 76.597656 284.984375 75.851562 284.765625 75.617188 284.695312 C 74.277344 284.285156 72.484375 283.335938 68.894531 281.429688 C 64.421875 279.0625 61.570312 274.980469 58.808594 271.03125 C 57.40625 269.019531 56.113281 267.179688 54.9375 264.351562 C 54.195312 262.5625 52.59375 258.71875 52.546875 253.695312 C 52.53125 252.214844 52.636719 248.777344 52.339844 245.335938 C 52.285156 244.667969 52.132812 243.136719 51.121094 241.667969 C 50.546875 240.839844 49.929688 240.367188 49.640625 240.136719 C 47.746094 238.640625 46.207031 236.742188 44.445312 235.089844 C 39.800781 230.730469 36.589844 222.667969 36.347656 222.039062 C 35.199219 219.101562 33.839844 215.527344 33.746094 210.621094 C 33.664062 206.195312 34.648438 202.84375 35.273438 200.78125 C 35.984375 198.441406 37.316406 194.890625 40.472656 190.125 C 45.046875 183.21875 50.332031 178.480469 53.765625 175.75 C 59.257812 171.375 74.433594 160.648438 79.484375 158.667969 C 79.84375 158.527344 81.382812 157.949219 81.421875 157.089844 C 81.445312 156.519531 80.808594 156.136719 79.636719 155.152344 C 78.457031 154.15625 80.539062 155.757812 77.144531 152.804688 C 73.40625 149.5625 71.777344 148.398438 68.738281 145.667969 C 65.691406 142.925781 64.167969 141.558594 64.003906 141.332031 C 63.917969 141.214844 63.566406 140.734375 62.9375 140.355469 C 62.4375 140.050781 61.957031 139.9375 61.734375 139.898438 C 61.304688 139.820312 61 139.84375 60.6875 139.855469 C 60.347656 139.867188 59.765625 139.8125 58.601562 139.699219 C 57.886719 139.632812 52.554688 139.097656 50.25 138.683594 C 46.320312 137.972656 41.109375 135.789062 37.261719 133.226562 C 34.851562 131.617188 23.113281 123.285156 22.136719 108.449219 C 22 106.351562 21.308594 92.523438 31.609375 84.28125 C 39.652344 77.847656 50.488281 77.9375 52.492188 78.722656 C 52.707031 78.808594 53.773438 79.277344 55.140625 79.128906 C 56.371094 79 57.226562 78.441406 57.433594 78.3125 C 59.289062 77.191406 67.917969 75.472656 80.558594 76.734375 C 82.484375 76.925781 94.089844 78.144531 99.203125 78.835938 C 99.539062 78.882812 100.5625 79.023438 101.902344 78.925781 C 104.8125 78.71875 106.90625 77.558594 107.503906 77.242188 C 111.1875 75.292969 117.730469 73.734375 121 73.261719 C 127.980469 72.261719 140.691406 73.261719 143.71875 72.550781 C 143.921875 72.503906 144.234375 72.410156 144.484375 72.144531 C 145.035156 71.535156 144.890625 70.414062 143.820312 67.25 C 143.332031 65.804688 143.09375 65.082031 142.855469 64.546875 C 142.035156 62.703125 138.441406 52.644531 139.800781 43.289062 C 140.214844 40.433594 142.417969 28.492188 152.941406 22.691406 C 159.488281 19.082031 166.894531 19.144531 172.144531 20.699219 C 174.0625 21.382812 178.296875 22.980469 182.027344 25.1875 C 183.820312 26.246094 184.996094 27.15625 185.285156 27.378906 C 186.746094 28.515625 187.722656 29.5 188.644531 30.433594 C 190.199219 32.007812 190.976562 32.792969 191.378906 33.609375 C 191.507812 33.871094 191.636719 34.167969 191.953125 34.46875 C 192.683594 35.15625 193.867188 35.3125 194.808594 35.074219 C 195.605469 34.875 195.746094 34.515625 196.996094 33.699219 C 196.996094 33.699219 197.652344 33.269531 199.390625 32.425781 C 207.242188 28.601562 217.167969 28.1875 217.167969 28.1875 C 219.523438 28.089844 223.746094 27.9375 228.828125 29.0625 C 232.289062 29.824219 243.75 32.34375 251.800781 43.132812 C 258.308594 51.851562 258.421875 61.382812 258.605469 69.730469 C 258.667969 72.488281 258.421875 74.4375 258.199219 75.714844 C 257.367188 80.535156 255.535156 83.851562 253.871094 86.863281 C 253.019531 88.402344 250.808594 92.40625 249.984375 92.097656 C 249.835938 92.039062 249.734375 91.84375 249.78125 91.761719 C 249.960938 91.449219 252.261719 92.59375 255.871094 93.972656 C 258.171875 94.851562 259.546875 95.265625 260.148438 95.480469 C 265.027344 97.226562 274.441406 105.652344 276.125 116.84375 C 277.003906 122.652344 277.46875 125.769531 276.261719 129.488281 C 275.78125 130.96875 274.671875 133.671875 275.855469 134.996094 C 276.558594 135.777344 277.757812 135.746094 278.167969 135.742188 C 284.164062 135.683594 294.425781 139.058594 295.078125 139.28125 C 300.019531 140.925781 303.421875 143.683594 308.644531 147.914062 C 310.351562 149.296875 312.132812 150.746094 314.160156 152.941406 C 315.417969 154.300781 318.3125 157.613281 321.9375 164.738281 C 326.148438 173.015625 328.101562 180.046875 328.695312 182.308594 C 330.277344 188.316406 330.808594 193.003906 331.75 201.273438 C 332.179688 205.058594 332.34375 207.695312 332.429688 209.5 C 332.550781 212.148438 332.558594 214.367188 332.566406 216.164062 C 332.566406 216.960938 332.570312 219.390625 332.496094 222.214844 C 332.347656 227.769531 332.050781 229.132812 331.410156 239.003906 C 331.007812 245.214844 331.078125 245.429688 330.800781 247.640625 C 330.453125 250.40625 330.128906 251.773438 330.050781 254.507812 C 329.980469 257.078125 330.234375 257.046875 330.257812 260.214844 C 330.277344 263.316406 330.035156 263.527344 329.851562 268.511719 C 329.699219 272.605469 329.855469 272.644531 329.648438 274.246094 C 329.523438 275.183594 329.160156 277.535156 327.59375 281.441406 C 326.28125 284.714844 324.625 288.835938 320.957031 293.1875 C 319.769531 294.589844 316.589844 298.132812 311.515625 301.070312 C 307.5625 303.359375 302.613281 305.195312 299.019531 306.527344 C 296.476562 307.472656 294.878906 307.972656 292.773438 309.367188 C 289.550781 311.507812 287.800781 313.996094 287.101562 314.941406 C 278.40625 326.664062 257.542969 334.398438 255.898438 334.996094 C 253.917969 335.71875 252.261719 336.21875 251.347656 336.492188 C 246.652344 337.910156 241.527344 339.070312 232.347656 340.230469 C 230.542969 340.460938 213.265625 342.605469 200.160156 342.117188 C 195.589844 341.945312 190.6875 341.605469 190.6875 341.605469 C 187.371094 341.375 185.714844 341.261719 183.402344 341.042969 C 180.074219 340.730469 178.796875 340.535156 176.304688 340.5 C 175.035156 340.484375 173.386719 340.46875 171.382812 340.6875 Z M 171.371094 340.671875 " fill-opacity="1" fill-rule="nonzero"/><path fill="#ffffff" d="M 126.957031 160.417969 C 126.429688 160.003906 126.253906 159.429688 125.863281 158.382812 C 125.402344 157.144531 125.488281 156.484375 125.222656 154.332031 C 125.019531 152.65625 124.914062 151.808594 124.613281 150.792969 C 124.574219 150.65625 123.976562 148.703125 122.847656 147.191406 C 121.269531 145.066406 119.039062 144.355469 116.667969 143.519531 C 113.503906 142.40625 110.472656 140.925781 107.296875 139.851562 C 90.886719 134.28125 89 130.78125 88.414062 129.382812 C 88.050781 128.511719 87.507812 127.214844 87.804688 125.644531 C 88.714844 120.761719 96.332031 118.582031 95.886719 117.285156 C 95.675781 116.6875 93.902344 116.796875 93.710938 116.8125 C 87.316406 117.214844 73.308594 116.402344 67.925781 110.402344 C 66.390625 108.683594 66.425781 107.515625 66.480469 107.089844 C 66.8125 104.34375 71.378906 102.90625 72.355469 102.605469 C 77.882812 100.871094 83.035156 102.6875 86.648438 103.964844 C 87.78125 104.363281 91.195312 105.636719 95.136719 108.316406 C 98.703125 110.738281 100.890625 113.089844 102 114.230469 C 109.363281 121.820312 121.289062 130.019531 129.910156 130.953125 C 134.039062 131.398438 136.101562 131.621094 138.199219 131.019531 C 139.21875 130.726562 140.894531 130.085938 143.222656 130.273438 C 144.832031 130.402344 145.207031 130.804688 145.496094 130.546875 C 147.179688 129.046875 138.59375 113.3125 131.4375 112.394531 C 130.875 112.320312 129.007812 112.175781 126.988281 111.035156 C 125.175781 110.011719 124.140625 108.699219 123.523438 107.910156 C 122.464844 106.539062 120.730469 104.300781 121.488281 102.742188 C 121.789062 102.121094 122.347656 101.824219 123.183594 101.484375 C 125.179688 100.667969 126.84375 100.785156 128.886719 100.769531 C 130.835938 100.753906 128.644531 100.652344 133.574219 100.5 C 139.839844 100.304688 143.398438 100.46875 147.898438 100.363281 C 153.296875 100.234375 155.996094 100.167969 157.511719 99.75 C 158.722656 99.410156 166.738281 97.195312 170.039062 90.03125 C 173.152344 83.273438 170.425781 75.695312 170.246094 75.210938 C 168.875 71.554688 165.984375 67.40625 166.984375 64.199219 C 167.425781 62.796875 168.386719 61.574219 168.386719 61.574219 C 169.117188 60.65625 170.09375 59.417969 171.195312 59.4375 C 172.875 59.472656 174.050781 62.414062 174.929688 64.605469 C 175.742188 66.632812 176.199219 68.488281 176.605469 70.757812 C 177.777344 77.316406 176.875 78.316406 178.324219 81.53125 C 178.757812 82.492188 179.722656 83.820312 181.71875 86.425781 C 182.171875 87.011719 182.578125 87.523438 183.289062 87.753906 C 184.273438 88.070312 185.128906 87.628906 186.777344 86.902344 C 189.363281 85.757812 187.878906 86.582031 191.097656 85.132812 C 193.28125 84.152344 194.941406 83.335938 195.765625 82.925781 C 198.382812 81.621094 199.695312 80.964844 200.449219 80.429688 C 202.59375 78.898438 203.8125 77.195312 204.675781 75.957031 C 205.230469 75.171875 207 72.550781 208.34375 68.140625 C 210.136719 62.261719 209.328125 59.265625 212.0625 55.902344 C 212.835938 54.949219 213.480469 54.480469 214.097656 54.167969 C 216.175781 53.132812 218.398438 53.738281 220.921875 54.425781 C 223.261719 55.0625 224.71875 55.925781 225.097656 56.160156 C 225.730469 56.542969 226.722656 57.160156 227.75 58.25 C 228.246094 58.78125 229.570312 60.1875 230.039062 61.917969 C 230.671875 64.253906 229.570312 66.480469 228.820312 67.832031 C 225.238281 74.28125 218.183594 81.667969 214.964844 85.265625 C 207.449219 93.683594 205.878906 96.195312 205.898438 99.339844 C 205.925781 104.222656 209.523438 109.714844 213.742188 111.273438 C 214.972656 111.726562 216.902344 112.082031 219.703125 112.597656 C 221.929688 113.007812 223.066406 113.214844 224.289062 113.222656 C 226.953125 113.234375 228.289062 113.242188 228.96875 113.109375 C 229.351562 113.035156 230.167969 112.851562 231.007812 113.210938 C 231.574219 113.457031 231.925781 113.847656 232.152344 114.121094 C 232.800781 114.910156 236.082031 118.921875 234.523438 121.621094 C 234.347656 121.925781 234.15625 122.132812 234.011719 122.28125 C 233.324219 123.019531 232.546875 123.351562 230.347656 123.964844 C 228.730469 124.414062 227.917969 124.644531 227.292969 124.734375 C 227.292969 124.734375 225.5625 124.972656 223.726562 124.78125 C 218.839844 124.277344 212.074219 120.585938 208.601562 121.058594 C 208.230469 121.109375 207.277344 121.238281 206.613281 121.976562 C 206.355469 122.265625 206.117188 122.667969 205.902344 123.710938 C 205.765625 124.359375 205.464844 125.820312 205.699219 127.179688 C 206.277344 130.511719 209.972656 132.464844 211.707031 133.398438 C 212.898438 134.042969 213.636719 134.261719 216.222656 135.097656 C 224.878906 137.894531 227.722656 139.011719 230.488281 141.011719 C 230.984375 141.375 232.464844 142.472656 233.675781 144.410156 C 234.390625 145.542969 235.6875 147.609375 234.96875 148.757812 C 234.753906 149.105469 234.234375 149.558594 228.585938 149.371094 C 226.367188 149.296875 225.917969 149.191406 223.695312 149.097656 C 222.46875 149.046875 221.59375 149.035156 218.191406 149.027344 C 214.417969 149.019531 212.863281 149.03125 210.519531 149.027344 C 205.421875 149.019531 205.269531 148.945312 202.847656 148.960938 C 199.589844 148.980469 196.941406 149.179688 191.640625 149.570312 C 184.578125 150.097656 181.046875 150.355469 177.925781 150.929688 C 176.550781 151.183594 174.632812 151.582031 171.613281 152.015625 C 169.464844 152.328125 168.976562 152.335938 167.332031 152.628906 C 165.574219 152.945312 164.683594 153.195312 161.707031 153.929688 C 158.441406 154.742188 156.804688 155.148438 155.246094 155.484375 C 154.351562 155.679688 154.859375 155.558594 148.117188 156.84375 C 146.304688 157.191406 144.972656 157.445312 143.226562 157.796875 C 142.609375 157.921875 141.375 158.167969 139.898438 158.476562 C 137.289062 159.023438 134.671875 159.519531 132.074219 160.109375 C 129.050781 160.796875 127.882812 161.144531 126.960938 160.414062 Z M 126.957031 160.417969 " fill-opacity="1" fill-rule="nonzero"/><path fill="#ffffff" d="M 265.667969 153.59375 C 261.945312 153.609375 259.632812 153.3125 258.402344 154.816406 C 258.101562 155.183594 257.90625 155.789062 257.519531 156.992188 C 257.125 158.210938 256.671875 159.625 256.632812 161.339844 C 256.613281 162.351562 256.5625 164.960938 258.195312 167.050781 C 259.414062 168.609375 261.035156 169.203125 261.660156 169.429688 C 269.382812 172.25 280.890625 162.953125 287.46875 167.050781 C 288.894531 167.9375 289.824219 169.546875 291.679688 172.757812 C 293.835938 176.496094 294.707031 179.761719 295.34375 182.34375 C 296.78125 188.152344 297.648438 192.976562 298.742188 199.542969 C 298.742188 199.542969 299.714844 205.398438 301.527344 218.578125 C 301.574219 218.929688 301.929688 221.539062 302.136719 225.035156 C 302.210938 226.300781 302.253906 226.933594 302.207031 227.074219 C 300.964844 230.820312 290.199219 228.058594 287.46875 232.851562 C 286.804688 234.015625 286.652344 235.566406 287.195312 236.726562 C 288.136719 238.726562 290.957031 239.140625 292.558594 239.375 C 293.566406 239.523438 302.253906 240.792969 307.160156 235.089844 C 308.914062 233.054688 309.597656 229.722656 310.964844 223.058594 C 311.402344 220.917969 311.945312 218.222656 312.253906 214.699219 C 312.808594 208.308594 312.21875 203.496094 311.574219 198.519531 C 310.875 193.109375 309.957031 186.304688 306.984375 177.886719 C 305.203125 172.839844 303.851562 169.015625 300.636719 164.527344 C 298.320312 161.292969 294.394531 155.960938 287.871094 153.992188 C 285.816406 153.375 283.671875 153.140625 282.777344 153.039062 C 280.828125 152.828125 279.652344 152.867188 272.929688 153.175781 C 270.507812 153.289062 268.089844 153.574219 265.664062 153.582031 Z M 265.667969 153.59375 " fill-opacity="1" fill-rule="nonzero"/><path fill="#ffffff" d="M 136.429688 307.171875 C 135.371094 305.332031 134.328125 304.789062 133.984375 302.992188 C 133.882812 302.4375 133.71875 301.523438 134.191406 300.648438 C 134.804688 299.503906 136.105469 299.160156 136.632812 299.015625 C 139.039062 298.375 141.808594 299.441406 143.5625 301.203125 C 144.898438 302.554688 145.347656 304.011719 146.007812 306.152344 C 146.328125 307.199219 147.082031 309.648438 146.957031 312.164062 C 146.6875 317.640625 142.363281 321.539062 141.117188 322.566406 C 134.65625 327.90625 125.339844 327.105469 119.523438 324.300781 C 116.820312 322.992188 114.933594 321.285156 113.996094 320.425781 C 113.152344 319.648438 109.597656 316.273438 107.273438 310.480469 C 106.261719 307.960938 103.972656 302.027344 105.621094 294.929688 C 106.554688 290.921875 108.347656 288.246094 109.894531 285.984375 C 114.585938 279.128906 120.316406 275.574219 126.523438 271.8125 C 133.363281 267.667969 139.078125 265.4375 145.089844 263.09375 C 146.414062 262.578125 151.941406 260.441406 159.554688 258.222656 C 166.507812 256.195312 171.671875 255.132812 177.328125 253.964844 C 186.605469 252.050781 194.855469 250.8125 199.917969 250.191406 C 200.65625 250.101562 202.417969 249.890625 205.164062 249.554688 C 210.683594 248.878906 213.832031 248.480469 215.25 248.308594 C 224.5625 247.164062 233.074219 246.789062 233.945312 246.753906 C 234.863281 246.714844 242.335938 246.414062 249.324219 246.628906 C 257.199219 246.871094 261.136719 246.992188 261.214844 247.007812 C 261.277344 247.023438 261.597656 247.097656 262.007812 247.035156 C 262.199219 247.003906 262.613281 246.9375 262.972656 246.601562 C 263.257812 246.339844 263.378906 246.039062 263.433594 245.863281 C 263.710938 244.882812 264.121094 244.183594 264.425781 243.746094 C 264.949219 243 265.511719 242.527344 266.332031 241.835938 C 266.789062 241.453125 267.128906 241.167969 267.660156 240.84375 C 268.484375 240.332031 269.183594 240.09375 269.671875 239.925781 C 270.140625 239.765625 270.546875 239.664062 271.023438 239.621094 C 271.714844 239.558594 271.976562 239.679688 272.09375 239.746094 C 272.207031 239.8125 272.460938 239.984375 272.65625 240.433594 C 273.167969 241.625 272.753906 243.59375 272.78125 245.914062 C 272.792969 247.074219 272.910156 247.625 273.316406 247.957031 C 273.421875 248.039062 273.613281 248.167969 274.792969 248.414062 C 275.421875 248.546875 275.734375 248.613281 276.21875 248.671875 C 277.398438 248.816406 280.664062 249.464844 283.480469 250.503906 C 285.976562 251.429688 287.734375 252.515625 288.597656 253.054688 C 291.089844 254.613281 296.042969 257.714844 298.605469 263.710938 C 299.195312 265.09375 300.449219 268.132812 300.007812 271.96875 C 299.894531 272.941406 299.714844 274.363281 298.882812 275.972656 C 297.171875 279.292969 294.101562 280.671875 292.933594 281.175781 C 290.59375 282.183594 288.566406 282.242188 287.269531 282.273438 C 284.503906 282.332031 282.378906 281.691406 280.570312 281.144531 C 279.410156 280.792969 278.238281 280.429688 276.800781 279.648438 C 275.300781 278.828125 274.230469 277.9375 273.285156 277.152344 C 272.085938 276.152344 271.410156 275.417969 271.25 275.242188 C 270.984375 274.949219 270.554688 274.460938 269.703125 273.292969 C 268.972656 272.289062 268.242188 271.292969 267.429688 269.929688 C 266.234375 267.929688 265.542969 266.285156 265.117188 265.277344 C 265.011719 265.019531 263.003906 260.175781 262.917969 258.164062 C 262.914062 258.054688 262.886719 257.324219 262.640625 256.40625 C 262.523438 255.988281 262.460938 255.757812 262.332031 255.554688 C 261.78125 254.695312 260.234375 254.753906 259.683594 254.777344 C 256.371094 254.890625 253.046875 254.617188 249.738281 254.777344 C 247.738281 254.871094 248.3125 254.8125 246.171875 254.914062 C 241.40625 255.140625 236.972656 255.523438 232.761719 255.964844 C 226.464844 256.628906 219.433594 257.371094 209.976562 258.992188 C 206.054688 259.664062 196.109375 261.390625 185.429688 264.261719 C 180.757812 265.515625 177.070312 266.6875 170.011719 268.609375 C 169.261719 268.816406 167.585938 269.273438 165.363281 269.96875 C 164.691406 270.183594 162.179688 270.976562 158.773438 272.246094 C 156.925781 272.9375 155.15625 273.65625 151.609375 275.105469 C 149.496094 275.964844 148.441406 276.394531 147.570312 276.769531 C 146.484375 277.238281 143.710938 278.445312 140.132812 280.238281 C 137.339844 281.636719 135.765625 282.425781 133.617188 283.703125 C 132.71875 284.242188 129.429688 286.222656 125.464844 289.347656 C 123.453125 290.933594 122.425781 291.75 121.289062 293.019531 C 119.253906 295.285156 118.191406 297.375 117.519531 298.695312 C 117.210938 299.300781 117.011719 299.75 116.839844 300.292969 C 116.320312 301.9375 116.398438 303.316406 116.464844 304.335938 C 116.519531 305.132812 116.636719 306.664062 117.382812 308.480469 C 118.28125 310.667969 119.585938 312.027344 120.320312 312.777344 C 121.066406 313.539062 122.132812 314.300781 124.238281 315.792969 C 126.433594 317.347656 127.53125 318.121094 128.042969 318.34375 C 128.699219 318.625 132.738281 320.363281 135.582031 318.242188 C 138.433594 316.109375 137.878906 311.714844 137.757812 310.929688 C 137.46875 309.027344 136.53125 307.367188 136.433594 307.195312 Z M 136.429688 307.171875 " fill-opacity="1" fill-rule="nonzero"/><path fill="#050303" d="M 267.589844 248.539062 C 268.257812 248.59375 267.695312 248.535156 268.972656 248.636719 C 271.609375 248.839844 272.265625 248.960938 272.898438 249.417969 C 273.078125 249.550781 273.308594 249.71875 273.5 250.019531 C 273.753906 250.421875 273.792969 250.890625 273.867188 251.8125 C 273.902344 252.269531 273.882812 252.277344 273.925781 252.828125 C 273.960938 253.300781 274.003906 253.671875 274.039062 253.941406 C 274.167969 255.066406 274.257812 255.386719 274.046875 255.761719 C 273.996094 255.847656 273.886719 256.035156 273.671875 256.160156 C 273.40625 256.316406 273.140625 256.277344 272.613281 256.21875 C 272.269531 256.179688 271.921875 256.171875 271.578125 256.117188 C 270.859375 256.003906 270.132812 255.953125 269.414062 255.871094 C 267.75 255.679688 266.917969 255.582031 266.65625 255.5625 C 266.65625 255.5625 266.261719 255.535156 265.652344 255.449219 C 265.085938 255.371094 264.96875 255.324219 264.917969 255.300781 C 264.371094 255.074219 264.101562 254.5625 264.042969 254.453125 C 263.84375 254.070312 263.851562 253.511719 263.863281 252.417969 C 263.871094 251.917969 263.886719 252.082031 263.902344 251.386719 C 263.929688 250.394531 263.902344 250.058594 264.078125 249.5625 C 264.246094 249.078125 264.441406 248.894531 264.496094 248.851562 C 264.738281 248.640625 265.011719 248.566406 265.386719 248.511719 C 266.175781 248.402344 266.773438 248.46875 267.589844 248.539062 Z M 267.589844 248.539062 " fill-opacity="1" fill-rule="nonzero"/><path fill="#020202" d="M 274.765625 259.757812 C 275.8125 258.683594 278.355469 259.640625 283.390625 261.59375 C 284.164062 261.894531 285.378906 262.378906 286.886719 263.171875 C 287.085938 263.277344 287.851562 263.683594 288.566406 264.125 C 289.660156 264.796875 291.628906 266.015625 293.28125 268.183594 C 294.382812 269.621094 295.84375 271.535156 295.5625 273.949219 C 295.429688 275.046875 294.992188 275.839844 294.796875 276.15625 C 293.582031 278.140625 291.449219 278.703125 290.226562 279.027344 C 287.605469 279.726562 285.472656 279.105469 285 278.960938 C 283.265625 278.425781 282.160156 277.507812 281.484375 276.9375 C 279.375 275.15625 278.390625 273.074219 276.953125 270.039062 C 276.488281 269.058594 276.210938 268.375 275.832031 267.421875 C 273.707031 262.121094 274.027344 260.785156 274.574219 259.992188 C 274.636719 259.894531 274.679688 259.832031 274.761719 259.753906 Z M 274.765625 259.757812 " fill-opacity="1" fill-rule="nonzero"/><path fill="#ffffff" d="M 162.195312 311.117188 C 162.296875 310.945312 162.433594 310.832031 162.433594 310.832031 C 162.84375 310.488281 163.410156 310.585938 163.941406 310.625 C 164.527344 310.667969 165.117188 310.550781 165.707031 310.558594 C 168.289062 310.585938 173.171875 310.46875 173.753906 310.457031 C 175.070312 310.425781 175.988281 310.378906 178.210938 310.253906 C 188.242188 309.6875 193.261719 309.402344 196.289062 309.179688 C 203.613281 308.644531 213.191406 307.941406 225.273438 305.941406 C 227.433594 305.582031 234.605469 304.371094 242.410156 302.296875 C 243.03125 302.132812 246.363281 301.246094 250.5625 299.851562 C 250.5625 299.851562 255.007812 298.378906 257.402344 297.289062 C 257.546875 297.222656 258.234375 296.90625 259.183594 296.488281 C 259.757812 296.238281 259.804688 296.222656 260.710938 295.828125 C 261.851562 295.332031 262.269531 295.140625 262.757812 294.902344 C 263.160156 294.707031 263.40625 294.585938 263.75 294.386719 C 264.230469 294.113281 264.484375 293.929688 264.976562 293.601562 C 265.488281 293.257812 265.964844 292.941406 266.453125 292.664062 C 267.515625 292.066406 268.382812 291.574219 268.796875 291.882812 C 269.050781 292.074219 269.027344 292.519531 268.980469 293.414062 C 268.945312 294.09375 268.851562 294.46875 268.726562 295.214844 C 268.617188 295.859375 268.65625 295.816406 268.472656 297.253906 C 268.25 299.023438 268.222656 298.886719 268.132812 299.738281 C 267.953125 301.382812 267.890625 303.347656 267.304688 304.292969 C 267.238281 304.394531 267.085938 304.636719 266.792969 304.835938 C 266.390625 305.109375 265.964844 305.128906 265.789062 305.140625 C 264.644531 305.207031 263.519531 305.457031 262.375 305.582031 C 262.199219 305.601562 261.648438 305.679688 260.542969 305.839844 C 255.90625 306.496094 254.699219 306.746094 251.207031 307.214844 C 249.710938 307.417969 247.070312 307.757812 245.605469 308.03125 C 245.480469 308.058594 244.878906 308.167969 244.058594 308.304688 C 243.441406 308.40625 242.941406 308.480469 242.53125 308.542969 C 240.964844 308.773438 239.695312 308.933594 239.679688 308.933594 C 237.179688 309.25 228.347656 310.53125 224.40625 311.105469 C 220.234375 311.710938 216.410156 312.277344 208.933594 313.386719 C 203.335938 314.214844 200.535156 314.628906 198.523438 314.933594 C 179.285156 317.816406 169.667969 319.257812 169.636719 319.273438 C 169.398438 319.375 168.519531 319.746094 167.4375 319.589844 C 163.464844 319.027344 161.628906 312.109375 162.191406 311.125 Z M 162.195312 311.117188 " fill-opacity="1" fill-rule="nonzero"/><g fill="#ffffff" fill-opacity="1"><g transform="translate(82.839064, 279.658551)"><g><path d="M 17.84375 -17.390625 C 13.78125 -16.0625 13.265625 -15.90625 11.25 -15.3125 C 9.765625 -14.875 9.453125 -14.78125 8.4375 -14.625 C 8.15625 -19.15625 7.8125 -33.359375 7.984375 -40.140625 C 8.03125 -44.296875 7.984375 -45.125 7.75 -45.875 C 7.59375 -46.40625 7.234375 -46.734375 6.640625 -46.828125 C 4.84375 -47.203125 0.90625 -47.03125 -0.96875 -46.484375 C -2.96875 -45.890625 -3.140625 -45.546875 -3.125 -41.703125 C -3.109375 -40.015625 -3.078125 -38.703125 -3.046875 -37.65625 C -3.078125 -18.015625 -2.859375 -11.34375 -2.1875 -9.09375 C -1.890625 -8.046875 -1.0625 -7.171875 1.671875 -4.765625 C 4.125 -2.671875 5.328125 -2.140625 6.875 -2.390625 C 6.9375 -2.40625 9.40625 -3.046875 14.328125 -4.4375 C 20.1875 -6.171875 20.3125 -6.203125 20.84375 -7.546875 C 21.421875 -9.0625 21.515625 -14.96875 20.96875 -16.84375 C 20.65625 -17.875 20.109375 -18.0625 18.765625 -17.671875 Z M 17.84375 -17.390625 "/></g></g></g><g fill="#ffffff" fill-opacity="1"><g transform="translate(108.629355, 272.044739)"><g><path d="M 9.546875 -14.234375 L 11.15625 -14.703125 L 12.453125 -15.09375 C 13.734375 -15.46875 14.328125 -16.765625 14.71875 -20.171875 L 16.90625 -10.875 L 17.375 -9.125 C 18.125 -6.546875 19.734375 -6.03125 23.734375 -7.21875 C 27.40625 -8.296875 28.171875 -9.515625 27.265625 -12.828125 C 27.09375 -13.390625 26.8125 -14.640625 26.34375 -16.46875 C 24.953125 -22.09375 22.65625 -30.796875 21.609375 -34.359375 C 20.546875 -37.96875 18.03125 -45.5625 17.40625 -46.921875 C 16.34375 -49.328125 15.6875 -49.703125 12.875 -49.515625 C 10.515625 -49.375 8.171875 -49.03125 7.203125 -48.734375 C 5.84375 -48.34375 5.3125 -47.765625 4.78125 -46 C 4.15625 -44.109375 2.21875 -35.203125 1.515625 -30.9375 L 0.171875 -22.96875 C -2.6875 -22.1875 -3.09375 -21.953125 -3.59375 -20.734375 C -4.28125 -19.203125 -4.25 -13.875 -3.625 -11.75 C -3.34375 -10.78125 -2.90625 -10.5625 -1.8125 -10.671875 L -2.171875 -7.859375 C -2.578125 -4.921875 -2.609375 -4.5625 -2.40625 -3.90625 C -2.1875 -3.140625 -1.625 -2.59375 -0.75 -2.3125 C 1.1875 -1.6875 4.375 -1.5625 6.046875 -2.0625 C 7.453125 -2.46875 7.765625 -3.140625 8.296875 -6.3125 Z M 13.390625 -26.8125 L 10.6875 -26.015625 C 10.71875 -27.34375 10.765625 -27.65625 10.96875 -30.5 C 11.109375 -32.15625 11.1875 -33.09375 11.375 -36.03125 L 11.453125 -37.390625 C 11.59375 -36.71875 11.75 -36.203125 11.71875 -36.0625 L 12.140625 -33.65625 C 12.359375 -32.46875 12.375 -32.171875 13.21875 -27.890625 Z M 13.390625 -26.8125 "/></g></g></g><g fill="#ffffff" fill-opacity="1"><g transform="translate(141.511982, 262.337126)"><g><path d="M 3.421875 -47.0625 C -5.125 -44.890625 -5.125 -44.890625 -5.78125 -44.703125 C -7.515625 -44.1875 -7.96875 -43.859375 -8.234375 -43.078125 C -8.75 -41.515625 -8.6875 -37.25 -8.15625 -35.453125 C -7.609375 -33.578125 -6.703125 -33.421875 -2.25 -34.734375 L 1.21875 -35.765625 C 1.28125 -35.78125 1.671875 -35.890625 2.28125 -36 L 2.25 -35.140625 C 2.0625 -19.390625 2.171875 -5.265625 2.5 -4.125 C 2.78125 -3.203125 3.5625 -2.875 5.46875 -2.8125 C 7.09375 -2.796875 9.203125 -3.078125 10.796875 -3.546875 C 13.0625 -4.21875 13.421875 -4.875 13.234375 -8.171875 C 13.109375 -10.171875 12.984375 -15.125 12.875 -22.15625 C 12.640625 -34.78125 12.640625 -34.78125 12.46875 -35.359375 C 12.1875 -36.328125 10.609375 -36.984375 8.265625 -37.078125 C 7.84375 -37.078125 7.40625 -37.09375 7.015625 -37.046875 C 6.921875 -37.09375 6.484375 -37.109375 6.078125 -37.125 C 6.90625 -37.4375 7.359375 -37.5625 7.796875 -37.703125 C 9.03125 -38.0625 9.03125 -38.0625 12.5625 -38.90625 C 16.640625 -39.8125 16.640625 -39.8125 16.953125 -39.90625 C 18.3125 -40.3125 18.8125 -41.015625 18.921875 -42.75 C 19.09375 -44.828125 18.96875 -48.078125 18.671875 -49.046875 C 18.4375 -49.875 18.015625 -50.328125 17.375 -50.328125 C 16.953125 -50.421875 16.953125 -50.421875 11.78125 -49.1875 Z M 3.421875 -47.0625 "/></g></g></g><g fill="#ffffff" fill-opacity="1"><g transform="translate(167.495699, 254.66621)"><g><path d="M 0.03125 -46.703125 C -1.0625 -46.375 -1.609375 -46.0625 -2.03125 -45.515625 C -2.53125 -44.875 -2.53125 -44.875 -2.703125 -36.703125 C -2.984375 -24.84375 -2.5625 -6.328125 -1.921875 -4.125 C -1.625 -3.171875 -0.90625 -2.53125 0.453125 -2.25 C 1.96875 -1.921875 5 -2.03125 6.8125 -2.578125 C 9 -3.21875 9.796875 -3.875 9.921875 -5.03125 C 10.015625 -6.1875 10 -7.21875 9.46875 -18.71875 C 9.28125 -22.5 8.96875 -39.171875 9.09375 -40.953125 C 9.125 -44.125 9.078125 -45.234375 8.9375 -45.75 C 8.703125 -46.53125 8.015625 -47.15625 7.203125 -47.328125 C 5.671875 -47.71875 2.546875 -47.453125 0.03125 -46.703125 Z M 0.03125 -46.703125 "/></g></g></g><g fill="#ffffff" fill-opacity="1"><g transform="translate(187.031852, 248.898745)"><g><path d="M 7.359375 -29.4375 C 11.6875 -19.796875 11.6875 -19.796875 14.734375 -13.734375 C 17.328125 -8.5 17.5625 -8.1875 18.984375 -7.84375 C 20.875 -7.421875 23.859375 -7.53125 26 -8.15625 C 28.515625 -8.90625 29.375 -9.71875 28.984375 -11.015625 C 28.9375 -11.203125 28.859375 -11.46875 28.75 -11.5625 C 28.203125 -12.515625 28.203125 -12.515625 28.125 -12.78125 C 28.046875 -13.046875 28.015625 -13.609375 28 -14.140625 C 28.28125 -24.609375 27.453125 -47.859375 26.671875 -50.5 C 26.375 -51.53125 25.75 -51.984375 23.90625 -52.203125 C 21.6875 -52.453125 19.859375 -52.40625 18.1875 -51.90625 C 16.3125 -51.359375 16.203125 -51.1875 16.421875 -45.78125 C 16.65625 -39.0625 17.109375 -33.921875 17.953125 -28.9375 C 15.859375 -34.390625 14.5625 -37.109375 12.484375 -40.625 C 9.90625 -44.84375 8.640625 -46.015625 6.328125 -46.53125 C 4 -46.96875 0.796875 -46.9375 -1 -46.40625 C -2.421875 -45.984375 -2.953125 -44.90625 -2.921875 -42.453125 C -2.984375 -30.03125 -2.796875 -24.96875 -2.234375 -10.6875 C -2.1875 -8.609375 -2.09375 -6.171875 -2 -4.671875 C -2.0625 -4.078125 -1.96875 -3.5625 -1.859375 -3.171875 C -1.59375 -2.265625 -0.796875 -1.796875 0.71875 -1.609375 C 2.3125 -1.453125 4.5 -1.609375 6.109375 -2.078125 C 8.625 -2.8125 9.03125 -3.65625 8.765625 -7.5625 C 8.625 -9.0625 8.515625 -11.28125 8.4375 -13.90625 C 8.109375 -24.0625 7.953125 -25 6.796875 -30.609375 Z M 7.359375 -29.4375 "/></g></g></g><g fill="#ffffff" fill-opacity="1"><g transform="translate(224.814631, 237.744508)"><g><path d="M 11.203125 -44.671875 C 11.046875 -46.859375 10.921875 -47.734375 10.640625 -48.71875 C 10.296875 -49.859375 9.59375 -50.15625 8.1875 -49.734375 C 5.53125 -48.953125 2.484375 -46.4375 0.140625 -43.234375 C -4.8125 -36.21875 -6.234375 -25.15625 -3.421875 -15.609375 C -1.890625 -10.453125 0.8125 -6.765625 4.65625 -4.671875 C 7.578125 -3.09375 10.9375 -2.671875 13.828125 -3.515625 C 18.46875 -4.890625 22.375 -8.984375 24.75 -14.953125 C 27.234375 -21.28125 27.34375 -32.0625 24.953125 -40.1875 C 22.859375 -47.265625 19.0625 -52.453125 16.484375 -51.6875 C 15.53125 -51.40625 15.109375 -50.875 11.890625 -45.703125 Z M 11.421875 -41.796875 C 12.515625 -40.015625 13.09375 -38.703125 13.8125 -36.3125 C 16.515625 -27.15625 15.46875 -16.484375 11.71875 -15.390625 C 10.125 -14.90625 8.203125 -16.65625 7.40625 -19.359375 C 6.59375 -22.0625 6.421875 -25.796875 6.828125 -29.34375 C 7.296875 -33 8.375 -35.5625 10.234375 -37.71875 C 11.078125 -38.671875 11.0625 -38.734375 11.25 -39.078125 C 11.421875 -39.46875 11.4375 -39.625 11.4375 -40.8125 C 11.390625 -41 11.421875 -41.375 11.421875 -41.796875 Z M 11.421875 -41.796875 "/></g></g></g><g fill="#ffffff" fill-opacity="1"><g transform="translate(259.695997, 227.446828)"><g><path d="M 9.625 -37.390625 C 10.015625 -36.109375 10.375 -36.09375 13.734375 -37.078125 C 17.265625 -38.125 18.40625 -39.015625 18.5625 -40.875 C 18.75 -42.890625 18.359375 -46.578125 17.796875 -48.453125 C 17.515625 -49.40625 17.078125 -49.96875 16.375 -50.25 C 15.15625 -50.75 12.296875 -50.53125 9.578125 -49.734375 C -0.359375 -46.796875 -6.71875 -38.40625 -4.546875 -31.046875 C -3.8125 -28.578125 -2.625 -27.140625 1.59375 -23.390625 C 5.265625 -20.125 7 -18.046875 7.5 -16.359375 C 7.9375 -14.875 7.046875 -13.65625 5.234375 -13.109375 C 4.921875 -13.015625 4.734375 -12.96875 4.265625 -12.890625 C 4.046875 -14.3125 3.921875 -14.96875 3.765625 -15.484375 C 3.5625 -16.1875 3.328125 -16.46875 3.015625 -16.609375 C 2.4375 -16.703125 0.15625 -16.3125 -1.703125 -15.75 C -3.578125 -15.203125 -4.46875 -14.4375 -4.6875 -13.265625 C -5 -11.484375 -4.53125 -5.1875 -3.90625 -3.046875 C -3.625 -2.09375 -3.0625 -1.34375 -2.15625 -0.90625 C -0.90625 -0.21875 2.203125 -0.578125 6.40625 -1.828125 C 10.59375 -3.0625 13.765625 -4.90625 15.796875 -7.328125 C 18.546875 -10.59375 19.5 -15.4375 18.1875 -19.890625 C 16.984375 -23.9375 14.640625 -27.109375 9.765625 -31.28125 C 7.875 -32.953125 7.015625 -33.96875 6.734375 -34.921875 C 6.3125 -36.34375 7.0625 -37.328125 9.4375 -38.34375 Z M 9.625 -37.390625 "/></g></g></g><g fill="#ffffff" fill-opacity="1"><g transform="translate(286.196712, 219.623284)"><g/></g><g transform="translate(302.315648, 214.864649)"><g/></g><g transform="translate(318.434584, 210.106015)"><g/></g><g transform="translate(334.55352, 205.347381)"><g/></g><g transform="translate(350.672456, 200.588747)"><g/></g></g><g fill="#ffffff" fill-opacity="1"><g transform="translate(120.250701, 311.886515)"><g/></g><g transform="translate(128.125731, 310.359348)"><g/></g><g transform="translate(136.000761, 308.832181)"><g/></g><g transform="translate(143.875791, 307.305014)"><g/></g></g><g fill="#ffffff" fill-opacity="1"><g transform="translate(151.750821, 305.777847)"><g><path d="M 11.046875 -12.59375 C 13.140625 -14.484375 13.984375 -16.484375 13.59375 -18.5625 C 13.25 -20.328125 12.140625 -21.71875 10.453125 -22.40625 C 8.875 -23.0625 6.8125 -23.25 5.046875 -22.90625 C 3.875 -22.6875 2.4375 -22.15625 0.890625 -21.328125 C -0.375 -20.671875 -0.703125 -20.453125 -0.9375 -20.015625 C -1.34375 -19.421875 -1.703125 -16.484375 -1.515625 -15.53125 C -1.4375 -15.078125 -1.21875 -14.875 -0.9375 -14.921875 C -0.8125 -14.953125 -0.484375 -15.109375 -0.140625 -15.296875 C 0.03125 -15.390625 0.21875 -15.546875 0.4375 -15.65625 C 0.515625 -15.703125 0.640625 -15.75 0.828125 -15.859375 C 0.328125 -11.640625 -0.25 -4.640625 -0.109375 -3.890625 C -0.03125 -3.53125 0.828125 -2.609375 2.0625 -1.65625 C 3.3125 -0.671875 3.671875 -0.609375 5.59375 -0.984375 C 7.546875 -1.359375 9.15625 -2.03125 10.453125 -3.015625 C 12.59375 -4.578125 13.765625 -7.109375 13.328125 -9.3125 C 13.109375 -10.515625 12.453125 -11.453125 11.046875 -12.59375 Z M 5.90625 -15.296875 C 5.96875 -15.953125 5.96875 -15.953125 5.9375 -16.125 C 5.859375 -16.515625 5.671875 -16.65625 5.046875 -16.765625 C 4.265625 -16.921875 3.578125 -16.9375 2.65625 -16.828125 C 3.6875 -17.46875 4.375 -17.71875 5.453125 -17.9375 C 7.09375 -18.25 8.125 -17.8125 8.328125 -16.75 C 8.5625 -15.546875 7.484375 -14.296875 5.765625 -13.71875 Z M 5.6875 -12.109375 C 6.0625 -11.140625 6.234375 -10.6875 6.484375 -10.015625 C 6.65625 -9.625 6.75 -9.53125 7 -9.46875 C 7.71875 -9.28125 7.953125 -9.046875 8.0625 -8.484375 C 8.296875 -7.3125 7.234375 -6.15625 5.78125 -5.875 L 5.15625 -5.75 Z M 5.6875 -12.109375 "/></g></g></g><g fill="#ffffff" fill-opacity="1"><g transform="translate(168.540381, 302.521928)"><g><path d="M 10.984375 -18.234375 C 11.65625 -18.359375 11.921875 -18.59375 12.09375 -19.25 C 12.328125 -20.203125 12.46875 -22.203125 12.328125 -22.953125 C 12.203125 -23.625 11.84375 -23.734375 10.453125 -23.5 C 10.328125 -23.46875 9.625 -23.375 8.859375 -23.296875 C 6.484375 -22.96875 5.171875 -22.75 3.71875 -22.46875 C 0.421875 -21.828125 -0.078125 -21.65625 -0.328125 -21.25 C -0.59375 -20.8125 -0.9375 -17.640625 -0.796875 -16.90625 C -0.703125 -16.40625 -0.25 -16.296875 0.90625 -16.515625 L 0.640625 -13.171875 C -0.453125 -12.96875 -0.578125 -12.890625 -0.765625 -12.421875 C -1.078125 -11.625 -1.1875 -9.484375 -1 -8.5 C -0.890625 -7.96875 -0.640625 -7.8125 0.109375 -7.875 L -0.015625 -4.4375 C -0.046875 -3.71875 -0.046875 -3.71875 0 -3.46875 C 0.125 -2.84375 0.75 -2.109375 1.671875 -1.34375 C 2.484375 -0.671875 2.921875 -0.65625 5 -1.0625 L 6.734375 -1.40625 L 9.703125 -1.921875 C 10.375 -2.046875 10.671875 -2.234375 10.90625 -2.5625 C 11.3125 -3.21875 11.53125 -5.1875 11.328125 -6.21875 C 11.25 -6.65625 10.984375 -6.921875 10.65625 -6.9375 C 10.296875 -6.953125 9.546875 -6.84375 7.4375 -6.46875 C 6.1875 -6.21875 5.84375 -6.15625 5.234375 -6.078125 L 5.34375 -8.890625 C 6.0625 -9.015625 8.25 -9.390625 9.59375 -9.546875 L 10.375 -9.671875 C 11.03125 -9.796875 11.25 -10.09375 11.46875 -11.15625 C 11.703125 -12.265625 11.8125 -13.765625 11.6875 -14.421875 C 11.546875 -15.078125 11.34375 -15.109375 7.390625 -14.4375 L 6.234375 -14.265625 L 5.9375 -14.203125 C 6.046875 -14.875 6.0625 -15.875 6.015625 -16.109375 C 5.953125 -16.40625 5.796875 -16.515625 4.46875 -16.890625 C 4.375 -16.921875 4.0625 -16.96875 3.75 -17.078125 C 6.15625 -17.46875 8.15625 -17.796875 9.78125 -18.015625 Z M 10.984375 -18.234375 "/></g></g></g><g fill="#ffffff" fill-opacity="1"><g transform="translate(183.660441, 299.589768)"><g><path d="M 11.046875 -12.59375 C 13.140625 -14.484375 13.984375 -16.484375 13.59375 -18.5625 C 13.25 -20.328125 12.140625 -21.71875 10.453125 -22.40625 C 8.875 -23.0625 6.8125 -23.25 5.046875 -22.90625 C 3.875 -22.6875 2.4375 -22.15625 0.890625 -21.328125 C -0.375 -20.671875 -0.703125 -20.453125 -0.9375 -20.015625 C -1.34375 -19.421875 -1.703125 -16.484375 -1.515625 -15.53125 C -1.4375 -15.078125 -1.21875 -14.875 -0.9375 -14.921875 C -0.8125 -14.953125 -0.484375 -15.109375 -0.140625 -15.296875 C 0.03125 -15.390625 0.21875 -15.546875 0.4375 -15.65625 C 0.515625 -15.703125 0.640625 -15.75 0.828125 -15.859375 C 0.328125 -11.640625 -0.25 -4.640625 -0.109375 -3.890625 C -0.03125 -3.53125 0.828125 -2.609375 2.0625 -1.65625 C 3.3125 -0.671875 3.671875 -0.609375 5.59375 -0.984375 C 7.546875 -1.359375 9.15625 -2.03125 10.453125 -3.015625 C 12.59375 -4.578125 13.765625 -7.109375 13.328125 -9.3125 C 13.109375 -10.515625 12.453125 -11.453125 11.046875 -12.59375 Z M 5.90625 -15.296875 C 5.96875 -15.953125 5.96875 -15.953125 5.9375 -16.125 C 5.859375 -16.515625 5.671875 -16.65625 5.046875 -16.765625 C 4.265625 -16.921875 3.578125 -16.9375 2.65625 -16.828125 C 3.6875 -17.46875 4.375 -17.71875 5.453125 -17.9375 C 7.09375 -18.25 8.125 -17.8125 8.328125 -16.75 C 8.5625 -15.546875 7.484375 -14.296875 5.765625 -13.71875 Z M 5.6875 -12.109375 C 6.0625 -11.140625 6.234375 -10.6875 6.484375 -10.015625 C 6.65625 -9.625 6.75 -9.53125 7 -9.46875 C 7.71875 -9.28125 7.953125 -9.046875 8.0625 -8.484375 C 8.296875 -7.3125 7.234375 -6.15625 5.78125 -5.875 L 5.15625 -5.75 Z M 5.6875 -12.109375 "/></g></g></g><g fill="#ffffff" fill-opacity="1"><g transform="translate(200.450001, 296.333849)"><g><path d="M 2.15625 -22.1875 C 1.609375 -22.078125 1.328125 -21.96875 1.125 -21.734375 C 0.828125 -21.453125 0.828125 -21.453125 0.390625 -17.5625 C -0.296875 -11.9375 -0.9375 -3.109375 -0.734375 -2.046875 C -0.640625 -1.578125 -0.3125 -1.234375 0.3125 -1.046875 C 1.03125 -0.8125 2.46875 -0.734375 3.359375 -0.90625 C 4.4375 -1.125 4.8125 -1.390625 4.953125 -1.953125 C 5.046875 -2.46875 5.078125 -2.984375 5.359375 -8.453125 C 5.421875 -10.265625 6.046875 -18.203125 6.1875 -19.03125 C 6.34375 -20.5625 6.375 -21.078125 6.328125 -21.328125 C 6.25 -21.703125 5.953125 -22.046875 5.578125 -22.171875 C 4.859375 -22.40625 3.375 -22.421875 2.15625 -22.1875 Z M 2.15625 -22.1875 "/></g></g></g><g fill="#ffffff" fill-opacity="1"><g transform="translate(209.994539, 294.482922)"><g><path d="M 0.15625 -9.328125 C -0.0625 -7 -0.109375 -5.03125 0.03125 -4.3125 C 0.171875 -3.59375 0.515625 -3.234375 2.15625 -1.984375 C 3.625 -0.890625 3.796875 -0.828125 4.828125 -1.03125 C 6.953125 -1.4375 8.921875 -2.546875 10.796875 -4.34375 C 13.828125 -7.34375 15.40625 -12.109375 14.625 -16.140625 C 13.625 -21.3125 9.484375 -23.90625 3.96875 -22.84375 C 2.15625 -22.484375 -0.0625 -21.5625 -0.75 -20.875 C -1.125 -20.5 -1.125 -20.5 -1.328125 -17.65625 C -1.4375 -16.1875 -1.4375 -16.1875 -1.40625 -16.03125 C -1.359375 -15.75 -1.15625 -15.59375 -0.9375 -15.640625 C -0.75 -15.671875 -0.484375 -15.796875 -0.09375 -16.078125 C 0.140625 -16.234375 0.359375 -16.375 0.40625 -16.421875 C 0.4375 -16.421875 0.59375 -16.515625 0.734375 -16.609375 Z M 5.890625 -14.78125 C 5.96875 -15.765625 5.96875 -16.140625 5.90625 -16.40625 C 5.765625 -17.1875 4.578125 -17.515625 2.453125 -17.5 C 3.0625 -17.78125 3.359375 -17.875 3.953125 -17.984375 C 6.765625 -18.53125 8.84375 -17.28125 9.34375 -14.6875 C 9.984375 -11.390625 8.171875 -7.796875 5.40625 -6.96875 Z M 5.890625 -14.78125 "/></g></g><g transform="translate(227.697606, 291.049851)"><g><path d="M 5.1875 -6.34375 L 5.96875 -6.484375 L 6.59375 -6.609375 C 7.21875 -6.734375 7.578125 -7.328125 7.921875 -8.921875 L 8.515625 -4.40625 L 8.65625 -3.546875 C 8.890625 -2.28125 9.65625 -1.96875 11.609375 -2.34375 C 13.40625 -2.703125 13.8125 -3.234375 13.53125 -4.84375 C 13.484375 -5.125 13.390625 -5.734375 13.25 -6.625 C 12.859375 -9.359375 12.15625 -13.609375 11.828125 -15.34375 C 11.484375 -17.109375 10.640625 -20.828125 10.40625 -21.5 C 10.015625 -22.6875 9.71875 -22.90625 8.359375 -22.9375 C 7.25 -22.984375 6.109375 -22.921875 5.640625 -22.84375 C 4.96875 -22.703125 4.703125 -22.453125 4.359375 -21.625 C 3.984375 -20.78125 2.65625 -16.625 2.125 -14.625 L 1.109375 -10.921875 C -0.265625 -10.6875 -0.484375 -10.578125 -0.765625 -10.015625 C -1.15625 -9.328125 -1.390625 -6.796875 -1.1875 -5.75 C -1.09375 -5.28125 -0.90625 -5.15625 -0.390625 -5.15625 L -0.671875 -3.828125 C -1 -2.453125 -1.03125 -2.28125 -0.96875 -1.984375 C -0.890625 -1.59375 -0.65625 -1.296875 -0.25 -1.140625 C 0.640625 -0.734375 2.140625 -0.546875 2.953125 -0.703125 C 3.65625 -0.84375 3.828125 -1.15625 4.234375 -2.625 Z M 7.578125 -12.140625 L 6.25 -11.875 C 6.328125 -12.515625 6.390625 -12.65625 6.59375 -13.984375 C 6.75 -14.78125 6.828125 -15.21875 7.046875 -16.59375 L 7.140625 -17.234375 C 7.171875 -16.921875 7.21875 -16.65625 7.203125 -16.609375 L 7.296875 -15.4375 C 7.34375 -14.859375 7.34375 -14.734375 7.546875 -12.640625 Z M 7.578125 -12.140625 "/></g></g></g><g fill="#ffffff" fill-opacity="1"><g transform="translate(243.762666, 287.934431)"><g><path d="M 6.28125 -17.328125 C 6.40625 -16.703125 6.578125 -16.65625 8.21875 -16.984375 C 9.953125 -17.3125 10.53125 -17.703125 10.703125 -18.578125 C 10.859375 -19.53125 10.84375 -21.296875 10.671875 -22.203125 C 10.578125 -22.671875 10.390625 -22.984375 10.0625 -23.140625 C 9.515625 -23.421875 8.125 -23.453125 6.8125 -23.1875 C 1.953125 -22.25 -1.421875 -18.546875 -0.734375 -14.96875 C -0.5 -13.765625 -0.015625 -13 1.8125 -11.046875 C 3.421875 -9.328125 4.15625 -8.25 4.3125 -7.4375 C 4.453125 -6.71875 3.96875 -6.171875 3.078125 -6 C 2.921875 -5.96875 2.828125 -5.953125 2.609375 -5.9375 C 2.578125 -6.609375 2.546875 -6.9375 2.5 -7.171875 C 2.421875 -7.53125 2.34375 -7.6875 2.1875 -7.75 C 1.921875 -7.8125 0.8125 -7.75 -0.109375 -7.5625 C -1 -7.390625 -1.46875 -7.078125 -1.640625 -6.515625 C -1.84375 -5.6875 -1.90625 -2.671875 -1.703125 -1.625 C -1.625 -1.140625 -1.40625 -0.78125 -0.984375 -0.53125 C -0.4375 -0.140625 1.078125 -0.171875 3.109375 -0.578125 C 5.171875 -0.96875 6.765625 -1.71875 7.828125 -2.765625 C 9.28125 -4.1875 9.96875 -6.4375 9.546875 -8.609375 C 9.15625 -10.609375 8.1875 -12.21875 6.078125 -14.421875 C 5.25 -15.3125 4.875 -15.828125 4.78125 -16.28125 C 4.65625 -17 5.046875 -17.421875 6.234375 -17.78125 Z M 6.28125 -17.328125 "/></g></g></g></svg>